<mxfile host="app.diagrams.net" modified="2024-03-21T07:11:40.829Z" agent="Mozilla/5.0 (Macintosh; Intel Mac OS X 10_15_7) AppleWebKit/537.36 (KHTML, like Gecko) Chrome/122.0.0.0 Safari/537.36" version="24.0.7" etag="C0ACW-dZoiVSi2nihDkb" type="github">
  <diagram name="Page-1" id="WoyUwIbK28yOmGKgy_Qb">
    <mxGraphModel>
      <root>
        <mxCell id="0" />
        <mxCell id="1" parent="0" />
      </root>
    </mxGraphModel>
  </diagram>
</mxfile>
